<?xml version="1.0" standalone="no"?>
<!DOCTYPE svg PUBLIC "-//W3C//DTD SVG 20010904//EN"
 "http://www.w3.org/TR/2001/REC-SVG-20010904/DTD/svg10.dtd">
<svg version="1.0" xmlns="http://www.w3.org/2000/svg"
 width="90.000000pt" height="90.000000pt" viewBox="0 0 90.000000 90.000000"
 preserveAspectRatio="xMidYMid meet">
<metadata>
Created by potrace 1.14, written by Peter Selinger 2001-2017
</metadata>
<g transform="translate(0.000000,90.000000) scale(0.100000,-0.100000)"
fill="#000000" stroke="none">
<path d="M110 760 c-19 -19 -20 -33 -20 -250 0 -217 1 -231 20 -250 19 -19 33
-20 340 -20 307 0 321 1 340 20 19 19 20 33 20 250 0 217 -1 231 -20 250 -19
19 -33 20 -340 20 -307 0 -321 -1 -340 -20z m640 -220 l0 -180 -300 0 -300 0
0 180 0 180 300 0 300 0 0 -180z m-276 -225 c8 -22 -4 -45 -24 -45 -20 0 -36
33 -25 50 9 15 42 12 49 -5z"/>
<path d="M277 173 c-13 -12 -7 -41 9 -47 27 -10 332 -7 339 4 3 6 3 19 0 30
-6 19 -15 20 -174 20 -92 0 -171 -3 -174 -7z"/>
</g>
</svg>
